# xmcd
#
# Track frame offsets: 
#        150
#        12595
#        28012
#        41785
#        52057
#        70567
#        85972
#        99475
#        110717
#        128855
#
# Disc length: 1872 seconds
#
# Revision: 0
# Processed by: cddbd v1.5.1PL0 Copyright (c) Steve Scherf et al.
# Submitted via: ExactAudioCopy v0.95a5
#
DISCID=89074e0a
DTITLE=One Way Track - One Way Track
DYEAR=1996
DGENRE=Bluegrass
TTITLE0=Nobody Wins
TTITLE1=Tequila Sunrise
TTITLE2=Her Song
TTITLE3=Blue Highway Blues
TTITLE4=Safely Through
TTITLE5=The Old Homeplace
TTITLE6=Darby's Castle
TTITLE7=Please Don't Cry
TTITLE8=Slow Movin' Freight Train
TTITLE9=Haulin' Grass
EXTD=
EXTT0=
EXTT1=
EXTT2=
EXTT3=
EXTT4=
EXTT5=
EXTT6=
EXTT7=
EXTT8=
EXTT9=
PLAYORDER=
